<?xml version="1.0" encoding="UTF-8" standalone="no"?>
<svg
   xmlns:dc="http://purl.org/dc/elements/1.1/"
   xmlns:cc="http://creativecommons.org/ns#"
   xmlns:rdf="http://www.w3.org/1999/02/22-rdf-syntax-ns#"
   xmlns:svg="http://www.w3.org/2000/svg"
   xmlns="http://www.w3.org/2000/svg"
   width="256pt"
   height="256pt"
   viewBox="0 0 256 256"
   version="1.1"
   id="svg7">
  <metadata
     id="metadata13">
    <rdf:RDF>
      <cc:Work
         rdf:about="">
        <dc:format>image/svg+xml</dc:format>
        <dc:type
           rdf:resource="http://purl.org/dc/dcmitype/StillImage" />
        <dc:title></dc:title>
      </cc:Work>
    </rdf:RDF>
  </metadata>
  <defs
     id="defs11" />
  <g
     id="surface1"
     style="fill:#00b39f;fill-opacity:1">
    <path
       style="stroke:none;fill-rule:nonzero;fill:#00b39f;fill-opacity:1"
       d="M 127.976562 0.03125 C 93.605469 0.03125 62.03125 13.128906 37.671875 37.484375 C 13.316406 61.839844 0.21875 93.417969 0.21875 127.789062 C 0.21875 162.160156 13.316406 193.734375 37.671875 218.089844 C 58.125 238.542969 83.6875 251.058594 112.617188 254.78125 C 123.976562 256.246094 141.390625 255.503906 153.804688 253.03125 C 198.496094 244.125 236.679688 209.507812 250.0625 165.765625 C 264.101562 119.871094 252.058594 71.261719 218.28125 37.484375 C 193.921875 13.128906 162.347656 0.03125 127.976562 0.03125 Z M 126.8125 10.050781 C 145.300781 9.882812 163.777344 14.070312 180.617188 22.507812 C 203.695312 34.070312 221.695312 52.066406 233.257812 75.148438 C 249.878906 108.324219 249.878906 147.253906 233.257812 180.429688 C 227.457031 192.003906 221.679688 200.144531 212.476562 209.703125 C 193.003906 229.929688 167.222656 242.261719 138.546875 245.0625 C 117.160156 247.152344 95.089844 242.964844 75.335938 233.066406 C 63.757812 227.269531 55.621094 221.492188 46.0625 212.289062 C 9.191406 176.796875 -0.304688 121.058594 22.695312 75.148438 C 36.523438 47.550781 60.273438 26.671875 89.363281 16.546875 C 101.507812 12.320312 114.164062 10.167969 126.8125 10.050781 Z M 126.8125 10.050781 "
       id="path2" />
    <path
       style="stroke:none;fill-rule:nonzero;fill:#00b39f;fill-opacity:1"
       d="M 160.261719 168.554688 C 163.992188 179.738281 162.113281 183.117188 155.765625 187.964844 C 149.449219 192.8125 131.179688 192.8125 131.179688 192.8125 L 123.34375 192.8125 C 123.34375 192.8125 105.070312 192.8125 98.726562 187.964844 C 92.382812 183.117188 90.53125 179.738281 94.261719 168.554688 C 97.992188 157.335938 113.871094 132.75 116.996094 119.628906 C 116.996094 117.601562 121.59375 115.976562 127.246094 115.976562 C 132.902344 115.976562 137.496094 117.597656 137.496094 119.628906 C 140.621094 132.75 156.527344 157.332031 160.261719 168.554688 Z M 169.726562 204.160156 C 159.777344 211.804688 138.523438 212.402344 132.246094 212.402344 L 122.25 212.402344 C 115.976562 212.402344 94.742188 211.800781 84.773438 204.144531 C 72.414062 194.6875 70.03125 185.3125 75.6875 168.328125 C 77.996094 161.371094 83.152344 151.621094 88.613281 141.285156 C 95.128906 128.964844 102.507812 115 104.480469 106.699219 C 106.796875 96.921875 105.574219 65.84375 104.253906 48.417969 C 104.269531 48.632812 104.296875 48.863281 104.332031 49.097656 C 104.25 48.507812 104.210938 47.960938 104.210938 47.488281 C 104.210938 43.398438 106.453125 33.890625 127.246094 33.890625 C 148.039062 33.890625 150.285156 43.398438 150.285156 47.488281 C 150.285156 47.964844 150.25 48.515625 150.164062 49.109375 C 150.199219 48.871094 150.226562 48.636719 150.242188 48.414062 C 148.921875 65.847656 147.699219 96.933594 150.015625 106.703125 C 151.992188 115.015625 159.394531 129.011719 165.925781 141.355469 C 171.371094 151.652344 176.519531 161.382812 178.832031 168.324219 C 184.492188 185.3125 182.109375 194.6875 169.726562 204.160156 Z M 113.742188 47.921875 C 113.742188 49.988281 119.785156 51.6875 127.25 51.6875 C 134.707031 51.6875 140.757812 49.988281 140.757812 47.921875 C 140.757812 45.824219 134.707031 44.148438 127.25 44.148438 C 119.785156 44.148438 113.742188 45.824219 113.742188 47.921875 Z M 169.398438 171.472656 C 164.625 157.15625 144.324219 125.769531 140.34375 108.996094 C 137.945312 98.886719 138.785156 74.394531 139.585938 59.546875 C 136.457031 60.496094 132.429688 61.085938 127.246094 61.085938 C 122.070312 61.085938 118.042969 60.496094 114.914062 59.546875 C 115.710938 74.394531 116.550781 98.886719 114.15625 109 C 110.171875 125.769531 89.871094 157.160156 85.121094 171.472656 C 80.355469 185.78125 82.742188 190.070312 90.835938 196.261719 C 98.929688 202.484375 122.25 202.457031 122.25 202.457031 L 132.242188 202.457031 C 132.242188 202.457031 155.589844 202.484375 163.6875 196.261719 C 171.78125 190.070312 174.164062 185.78125 169.398438 171.472656 Z M 169.398438 171.472656 "
       id="path4" />
  </g>
</svg>
